<svg id="visual" viewBox="0 0 960 540" width="960" height="540" xmlns="http://www.w3.org/2000/svg" xmlns:xlink="http://www.w3.org/1999/xlink" version="1.1"><rect x="0" y="0" width="960" height="540" fill="#caf0f8"></rect><defs><linearGradient id="grad1_0" x1="43.8%" y1="100%" x2="100%" y2="0%"><stop offset="14.444444444444446%" stop-color="#caf0f8" stop-opacity="1"></stop><stop offset="85.55555555555554%" stop-color="#caf0f8" stop-opacity="1"></stop></linearGradient></defs><defs><linearGradient id="grad2_0" x1="0%" y1="100%" x2="56.3%" y2="0%"><stop offset="14.444444444444446%" stop-color="#caf0f8" stop-opacity="1"></stop><stop offset="85.55555555555554%" stop-color="#caf0f8" stop-opacity="1"></stop></linearGradient></defs><g transform="translate(960, 540)"><path d="M-252 0C-239.8 -40.2 -227.7 -80.3 -209.6 -121C-191.5 -161.7 -167.4 -202.8 -131.5 -227.8C-95.6 -252.7 -47.8 -261.3 0 -270L0 0Z" fill="#0077b6"></path></g><g transform="translate(0, 0)"><path d="M222 0C231.8 47.7 241.5 95.3 223.4 129C205.3 162.7 159.4 182.3 117.5 203.5C75.6 224.7 37.8 247.3 0 270L0 0Z" fill="#0077b6"></path></g></svg>