<svg id="visual" viewBox="0 0 960 540" width="960" height="540" xmlns="http://www.w3.org/2000/svg" xmlns:xlink="http://www.w3.org/1999/xlink" version="1.1"><rect x="0" y="0" width="960" height="540" fill="#caf0f8"></rect><defs><linearGradient id="grad1_0" x1="43.8%" y1="100%" x2="100%" y2="0%"><stop offset="14.444444444444446%" stop-color="#caf0f8" stop-opacity="1"></stop><stop offset="85.55555555555554%" stop-color="#caf0f8" stop-opacity="1"></stop></linearGradient></defs><defs><linearGradient id="grad2_0" x1="0%" y1="100%" x2="56.3%" y2="0%"><stop offset="14.444444444444446%" stop-color="#caf0f8" stop-opacity="1"></stop><stop offset="85.55555555555554%" stop-color="#caf0f8" stop-opacity="1"></stop></linearGradient></defs><g transform="translate(960, 540)"><path d="M-270 0C-249.4 -30.9 -228.8 -61.8 -209.7 -86.9C-190.6 -111.9 -172.9 -131 -154.1 -154.1C-135.4 -177.3 -115.4 -204.4 -89.5 -216.2C-63.7 -228 -31.8 -224.5 0 -221L0 0Z" fill="#00b4d8"></path></g><g transform="translate(0, 0)"><path d="M236 0C229.3 27.1 222.7 54.3 219 90.7C215.2 127.1 214.5 172.9 190.9 190.9C167.3 209 121 199.3 85.3 206C49.7 212.8 24.9 235.9 0 259L0 0Z" fill="#00b4d8"></path></g></svg>